<svg xmlns="http://www.w3.org/2000/svg" viewBox="0 0 64 64">
  <defs>
    <filter id="glow" x="-60%" y="-60%" width="220%" height="220%">
      <feGaussianBlur stdDeviation="1.6" result="b" />
      <feMerge>
        <feMergeNode in="b" />
        <feMergeNode in="SourceGraphic" />
      </feMerge>
    </filter>
    <radialGradient id="base" cx="50%" cy="50%" r="60%">
      <stop offset="0%" stop-color="#1ea7ec" stop-opacity="0.55" />
      <stop offset="100%" stop-color="#1ea7ec" stop-opacity="0" />
    </radialGradient>
  </defs>
  <rect width="64" height="64" rx="13" fill="#06080e" />
  <ellipse cx="32" cy="45" rx="24" ry="11" fill="url(#base)" />
  <g filter="url(#glow)" stroke-width="1.4" fill="#0c1f38">
    <polygon points="32,17.5 50,22 32,26.5 14,22" stroke="#2f6a93" />
    <polygon points="32,22.5 50,27 32,31.5 14,27" stroke="#357aa8" />
    <polygon points="32,27.5 50,32 32,36.5 14,32" stroke="#3f93c4" />
    <polygon points="32,32.5 50,37 32,41.5 14,37" stroke="#4fb0e0" />
    <polygon points="32,37.5 50,42 32,46.5 14,42" stroke="#69cdf2" fill="#102b48" />
    <polygon points="32,42.5 50,47 32,51.5 14,47" stroke="#7fe0ff" fill="#15375c" />
  </g>
</svg>
